#N canvas 444 32 416 648 10;
#X declare -lib mrpeach;
#X obj 49 87 unpackOSC;
#X obj 49 65 udpreceive 8500;
#X obj 49 115 route /extrovert;
#X obj 49 167 route note;
#X floatatom 49 1 5 0 0 0 - - -;
#X msg 49 32 port \$1;
#X obj 88 352 f;
#X obj 52 352 f;
#X obj 28 305 t b b f;
#X obj 49 199 unpack f f f f f f f;
#N canvas 41 42 426 452 calculate-delay 0;
#X obj 77 35 inlet;
#X obj 191 35 inlet;
#X obj 302 35 inlet;
#X text 186 16 BPM;
#X text 298 16 TPQ;
#X text 29 15 MIDI Note Length;
#X obj 126 391 outlet;
#X obj 204 177 f;
#X obj 249 177 f;
#X obj 204 224 *;
#X obj 149 270 /;
#X obj 126 325 *;
#X obj 87 113 t f b b b;
#X obj 302 83 * 4;
#X msg 149 227 60000;
#X connect 0 0 12 0;
#X connect 1 0 7 1;
#X connect 2 0 13 0;
#X connect 7 0 9 0;
#X connect 8 0 9 1;
#X connect 9 0 10 1;
#X connect 10 0 11 1;
#X connect 11 0 6 0;
#X connect 12 0 11 0;
#X connect 12 1 14 0;
#X connect 12 2 7 0;
#X connect 12 3 8 0;
#X connect 13 0 8 1;
#X connect 14 0 10 0;
#X restore 270 366 pd calculate-delay;
#X obj 243 303 f;
#X obj 192 309 f;
#X obj 192 241 t b b b f;
#X obj 189 425 f;
#X obj 218 425 f;
#X obj 214 382 t b b;
#X obj 298 416 print delay;
#X obj 189 467 pipe 0 0 0 100;
#X obj 92 534 pack 0 0 0;
#X obj 92 562 list trim;
#X obj 92 617 noteout;
#X text 86 1 in port;
#X obj 286 10 import mrpeach;
#X obj 103 590 print cmd-out;
#X obj 93 141 print cmd-in;
#X obj 49 141 t a a;
#X connect 0 0 2 0;
#X connect 1 0 0 0;
#X connect 2 0 26 0;
#X connect 3 0 9 0;
#X connect 4 0 5 0;
#X connect 5 0 1 0;
#X connect 6 0 19 1;
#X connect 7 0 14 1;
#X connect 7 0 19 0;
#X connect 8 0 7 0;
#X connect 8 1 6 0;
#X connect 8 2 15 1;
#X connect 8 2 19 2;
#X connect 9 0 13 0;
#X connect 9 1 12 1;
#X connect 9 3 11 1;
#X connect 9 4 8 0;
#X connect 9 5 7 1;
#X connect 9 6 6 1;
#X connect 10 0 17 0;
#X connect 10 0 18 3;
#X connect 11 0 10 0;
#X connect 12 0 10 2;
#X connect 13 0 16 0;
#X connect 13 1 11 0;
#X connect 13 2 12 0;
#X connect 13 3 10 1;
#X connect 14 0 18 0;
#X connect 15 0 18 2;
#X connect 16 0 14 0;
#X connect 16 1 15 0;
#X connect 18 0 19 0;
#X connect 18 1 19 1;
#X connect 18 2 19 2;
#X connect 19 0 20 0;
#X connect 20 0 21 0;
#X connect 20 0 24 0;
#X connect 26 0 3 0;
#X connect 26 1 25 0;
